<?xml version="1.0" encoding="UTF-8" standalone="no"?>
<svg width="816px" height="520px" viewBox="0 0 816 520" version="1.1" xmlns="http://www.w3.org/2000/svg" xmlns:xlink="http://www.w3.org/1999/xlink" xmlns:sketch="http://www.bohemiancoding.com/sketch/ns">
    <!-- Generator: Sketch 3.2.1 (9971) - http://www.bohemiancoding.com/sketch -->
    <title>background</title>
    <desc>Created with Sketch.</desc>
    <defs></defs>
    <g id="Icons" stroke="none" stroke-width="1" fill="none" fill-rule="evenodd" sketch:type="MSPage">
        <g id="background" sketch:type="MSArtboardGroup" fill="#0A3931">
            <g id="illustration" sketch:type="MSLayerGroup">
                <path d="M87.6972679,334.715284 C108.26073,335.398054 124.776036,351.209108 124.389832,373.455986 C124.044281,393.356041 106.799125,409.541189 85.9434694,409.292851 C65.8614923,409.054041 49.370324,392.004473 49.5697781,371.688405 C49.7724082,351.103041 66.9324464,334.025527 87.6972679,334.715284 L87.6972679,334.715284 Z M87.2081607,378.5955 C91.1546837,378.397338 93.8860612,375.386797 93.6180051,371.530257 C93.3556658,367.752473 90.4686633,365.179541 86.6815765,365.347851 C82.7560153,365.522514 80.0462347,368.521622 80.2799898,372.432149 C80.5035816,376.186432 83.4248852,378.78477 87.2081607,378.5955 L87.2081607,378.5955 Z" id="Fill-1" sketch:type="MSShapeGroup"></path>
                <path d="M489.830337,69.2000507 C489.571207,74.9284019 494.76924,80.1537101 500.948107,80.0269157 C506.890724,79.9048072 511.670565,74.958998 511.579594,68.9911155 C511.487245,62.9143552 506.626081,58.2251669 500.476987,58.2124875 C494.251532,58.1995324 489.462318,63.87248 489.830337,69.2000507" id="Fill-2" sketch:type="MSShapeGroup"></path>
                <path d="M237.505033,45.7904349 C237.700591,55.2250901 241.458665,62.4540298 248.087888,68.2900161 C249.498771,69.5318729 250.568908,69.450893 251.699787,67.6337824 C258.68457,56.4151 265.786392,45.2690031 272.84525,34.096736 C274.56231,31.3794644 276.257147,28.6488608 277.9747,25.932083 C279.664105,23.2592517 279.603857,23.0291502 276.720363,21.5606483 C265.278237,15.7330563 250.176311,19.6339186 242.819671,30.2487081 C239.464565,35.0907152 237.682319,40.4067511 237.505033,45.7904349" id="Fill-3" sketch:type="MSShapeGroup"></path>
                <path d="M500.674531,455.102905 C496.040717,453.254662 492.984115,449.936716 491.11852,445.551743 C486.311931,434.25523 495.939084,421.688446 508.410046,423.16577 C510.957849,423.467459 511.59877,422.720541 512.051036,420.511541 C512.554753,418.052297 513.43451,415.657838 514.290765,413.286243 C514.932957,411.509135 514.353015,410.773649 512.587783,410.410986 C491.906809,406.160027 473.450319,424.632932 477.871974,445.264027 C478.41698,447.806473 479.350094,450.298108 480.376584,452.696378 C481.263964,454.768189 481.084837,456.083554 478.942293,457.191865 C468.189559,462.755014 462.778255,471.960662 462.87163,483.753216 C462.963735,495.456216 468.290556,504.725378 478.86861,510.510824 C479.472689,510.841095 480.046278,511.227257 480.64464,511.568959 C481.12676,511.843973 481.624125,512.091676 482.461959,512.535635 C483.678375,508.6575 484.962758,505.030243 485.862842,501.310257 C486.048957,500.539203 485.037077,499.07077 484.189714,498.518838 C473.560209,491.5965 472.84751,477.597486 482.902156,470.060973 C486.373546,467.458824 490.454732,466.972946 494.722033,467.231446 C495.664676,467.288608 497.273648,466.535973 497.542339,465.785878 C498.771459,462.353608 499.632796,458.789865 500.674531,455.102905" id="Fill-4" sketch:type="MSShapeGroup"></path>
                <path d="M412.780071,302.855297 C401.536959,287.160473 390.436768,271.668257 379.342929,256.171595 C378.808722,255.425311 378.310087,254.651081 377.827967,253.86923 C374.694505,248.792595 374.330533,248.752581 370.269673,253.078486 C357.679293,266.49127 357.516046,286.491041 370.675569,299.395716 C382.494811,310.985662 399.817462,312.488392 412.780071,302.855297" id="Fill-5" sketch:type="MSShapeGroup"></path>
                <path d="M759.513842,246.404486 C762.188051,243.429514 764.730138,240.322432 767.562513,237.507514 C773.925352,231.185378 780.392365,224.966135 786.905747,218.798973 C788.730054,217.071405 788.817712,215.808757 787.460281,213.545135 C783.210765,206.460203 779.229941,199.203784 775.420622,191.870514 C774.176893,189.476689 773.049406,189.222 770.926554,190.496716 C763.438768,194.992838 755.877298,199.367014 748.44287,203.948243 C747.690788,204.411892 747.065747,206.109608 747.300773,206.988635 C749.964184,216.959622 752.797829,226.884878 755.607337,236.816486 C756.437548,239.752716 757.333186,242.670527 758.198969,245.59723 C758.63726,245.865892 759.075551,246.135189 759.513842,246.404486" id="Fill-6" sketch:type="MSShapeGroup"></path>
                <path d="M199.98988,52.3412027 C188.375809,52.4288514 179.855816,62.588473 180.931217,74.1815946 C181.871954,84.3183514 191.827508,92.6475135 202.143857,91.5398378 C213.993589,90.2682973 221.125026,81.4526216 220.409786,69.7813784 C219.805707,59.9355135 209.708503,51.4780541 199.98988,52.3412027" id="Fill-7" sketch:type="MSShapeGroup"></path>
                <path d="M224.445237,288.501878 C221.490903,285.028959 218.846548,281.877419 216.150742,278.769703 C214.644038,277.032608 213.026809,275.390784 211.503589,273.667662 C207.010791,268.585311 207.034293,268.594203 201.859921,273.20973 C196.287276,278.180932 190.489768,282.91777 185.150242,288.125243 C180.336666,292.820162 180.355722,300.521811 184.641444,305.353919 C189.164732,310.452784 197.116852,311.557284 202.41636,307.291716 C209.74852,301.390041 216.759903,295.09077 224.445237,288.501878" id="Fill-10" sketch:type="MSShapeGroup"></path>
                <path d="M276.915635,253.1655 C276.966452,245.919878 269.622222,239.297959 262.234163,240.59427 C253.632865,242.102716 245.152255,244.294568 236.620829,246.196797 C234.459865,246.678865 233.520398,247.831635 234.139722,250.172108 C235.786171,256.394527 237.376087,262.633459 238.866276,268.895257 C239.380791,271.057257 240.567352,271.792108 242.601276,271.305595 C250.985334,269.300473 259.436724,267.524 267.71661,265.151135 C273.629724,263.456595 276.877523,258.680378 276.915635,253.1655" id="Fill-11" sketch:type="MSShapeGroup"></path>
                <path d="M379.729133,77.2768919 C377.608821,77.6027162 375.303666,77.7449865 373.166204,78.4175946 C372.554503,78.6100405 371.930097,80.4678108 372.15877,81.3411216 C373.609577,86.8928378 375.226171,92.4051757 376.940587,97.8825811 C377.682505,100.254811 377.289314,101.448865 374.639878,102.030014 C369.378482,103.184054 364.175526,104.616919 358.968122,106.0085 C355.980122,106.8075 355.532939,108.627797 357.087918,113.024203 C358.031196,115.691135 359.782454,115.061716 361.837339,114.444365 C366.876413,112.930203 371.996158,111.687243 377.062546,110.259459 C379.192385,109.659257 380.028949,110.740257 380.499,112.531338 C381.750987,117.303743 382.936913,122.094568 384.313401,126.83077 C384.772018,128.409716 385.707673,131.096338 386.45912,131.108405 C388.635964,131.142703 390.871883,130.179838 392.977584,129.339554 C393.328852,129.199189 393.371411,127.655176 393.168145,126.858716 C391.806903,121.517865 390.498383,116.153514 388.843676,110.900311 C387.968365,108.120324 388.567362,106.912297 391.409901,106.247946 C396.882184,104.968784 402.287135,103.402541 407.725753,101.978568 C409.527827,101.506662 410.121107,100.757838 409.309952,98.7705 C406.945722,92.9736216 407.057518,92.9945811 400.770268,94.9241216 C396.933635,96.1016622 393.016332,97.0143514 389.161913,98.1391757 C386.555036,98.9000676 385.395788,97.9181486 384.789804,95.3579189 C383.413316,89.5477027 381.812602,83.7902027 380.288112,78.0155541 C380.23539,77.8154865 380.023867,77.657973 379.729133,77.2768919" id="Fill-12" sketch:type="MSShapeGroup"></path>
                <path d="M158.518676,470.346784 C161.795059,468.762757 164.539776,467.335608 167.370245,466.104716 C169.068145,465.366689 169.188834,464.542284 168.461526,462.910622 C161.36312,446.989054 154.353008,431.028108 147.306689,415.083676 C146.855059,414.060473 146.309418,413.078554 145.680566,411.824162 C142.189485,413.312284 138.890235,414.578108 135.76249,416.178649 C135.191441,416.470811 134.843985,418.337473 135.194617,419.116784 C138.535156,426.533892 142.134222,433.834135 145.48937,441.244892 C149.272645,449.60073 152.872982,458.039135 156.573681,466.433081 C157.118686,467.669689 157.774852,468.857392 158.518676,470.346784" id="Fill-13" sketch:type="MSShapeGroup"></path>
                <path d="M717.467143,413.389135 C718.265594,411.729527 718.710872,410.682189 719.257783,409.690743 C720.490079,407.455068 719.774204,406.060311 717.532569,405.077757 C713.951288,403.508973 710.442421,401.776324 706.860505,400.208811 C704.148819,399.021743 703.234125,397.4085 704.637291,394.517365 C706.442541,390.799919 707.850153,386.890662 709.621102,383.155432 C710.596776,381.097595 709.861209,380.101703 707.99625,379.551041 C706.14463,379.004189 704.080217,376.480162 702.475691,379.78477 C700.669171,383.506662 698.886788,387.254595 697.375003,391.101608 C696.176372,394.152162 694.662046,394.913054 691.628311,393.310608 C688.182964,391.490946 684.423191,390.270851 680.946084,388.502635 C678.144199,387.077392 677.052918,388.418797 675.971166,390.68623 C674.902117,392.928257 674.876074,394.413838 677.57061,395.501824 C681.510145,397.092203 685.273094,399.115108 689.186587,400.776622 C691.522232,401.768703 692.045005,403.287311 691.094105,405.439149 C689.468617,409.119122 687.824709,412.794014 686.072816,416.414919 C684.977089,418.679811 685.048232,420.332432 687.716089,421.306095 C690.073967,422.166703 692.227309,423.221027 693.527571,419.704284 C694.879921,416.048446 696.619745,412.533608 698.233163,408.976216 C699.198038,406.847878 700.319809,405.711622 703.020696,407.069541 C707.604964,409.372541 712.421082,411.213162 717.467143,413.389135" id="Fill-14" sketch:type="MSShapeGroup"></path>
                <path d="M805.632199,14.442973 C805.052893,13.8294324 804.990643,13.7087568 804.895362,13.6706486 C798.500763,11.105973 798.505844,11.1085135 795.945972,17.6205541 C794.851515,20.4043514 793.668765,23.1551216 792.64037,25.9630541 C791.765059,28.3543378 790.260895,28.7754324 788.023707,27.8938649 C784.062574,26.3333378 780.026487,24.9582703 776.093939,23.3310541 C772.983344,22.0442703 772.609844,24.4469865 771.810122,26.2660135 C771.00786,28.0907568 770.659133,29.6760541 773.26474,30.6135135 C777.375145,32.091473 781.376296,33.8755676 785.409842,35.5631216 C787.415181,36.4015 788.139949,37.5047297 787.05502,39.846473 C785.223727,43.8020946 783.935533,48.0047838 782.256054,52.0359865 C780.791908,55.5501892 784.050505,55.3825135 785.589605,56.4241351 C787.250663,57.5483243 788.489311,57.044027 789.283952,55.0217568 C790.879584,50.9607027 792.860786,47.0450946 794.330648,42.9433919 C795.285995,40.2796351 796.813661,39.8775946 799.108653,40.7655135 C802.968788,42.2587162 806.853061,43.7023784 810.643959,45.3562703 C813.983227,46.8126351 814.14711,44.0555135 815.089117,42.2777703 C816.120054,40.3317162 816.022232,38.8740811 813.592577,38.0007703 C809.923003,36.6809595 806.367765,35.0391351 802.687393,33.7536216 C799.887413,32.7755135 798.723084,31.4893649 800.089408,28.4038784 C802.128413,23.7985135 803.826314,19.0419865 805.632199,14.442973" id="Fill-15" sketch:type="MSShapeGroup"></path>
                <path d="M609.916293,20.3211486 C599.927074,13.8052973 590.019796,7.34216216 579.607531,0.550027027 C579.252452,2.2432973 578.957717,3.08612162 578.915158,3.94164865 C578.420969,13.8268919 577.958541,23.7134054 577.505005,33.6011892 C577.419888,35.451973 577.404643,37.5657027 580.193824,36.1868243 C589.779689,31.4493514 599.303304,26.5873919 608.839622,21.7508378 C609.107043,21.6155541 609.246788,21.2281216 609.916293,20.3211486" id="Fill-16" sketch:type="MSShapeGroup"></path>
                <path d="M716.262796,501.456338 C717.514148,501.815189 718.042638,502.028595 718.590819,502.114973 C729.849811,503.893986 741.110709,505.658392 753.054452,507.533311 C748.488605,495.936378 744.093628,484.773243 739.424878,472.915905 C731.536278,482.636014 724.08851,491.813716 716.262796,501.456338" id="Fill-17" sketch:type="MSShapeGroup"></path>
                <path d="M376.149758,455.948905 C374.555395,455.663095 372.200694,456.358568 371.03573,457.47323 C364.491222,463.734392 356.697903,464.983068 348.620013,462.380919 C339.701112,459.507568 334.468301,452.850716 333.269671,443.366878 C331.320865,427.954689 346.429829,414.647973 360.871829,418.451162 C362.199406,418.801122 364.049755,417.856041 365.443393,417.112297 C367.833031,415.836946 370.018133,414.186865 372.349967,412.797189 C384.70151,405.437878 403.956452,415.257703 404.033946,432.725824 C404.190842,447.535905 391.596651,458.718095 376.149758,455.948905 L376.149758,455.948905 Z M401.361643,437.958703 C405.172232,424.452554 393.013156,411.903554 380.71751,412.639676 C375.966819,412.923581 371.819571,414.774365 368.207801,417.840797 C366.558811,419.240635 366.121791,420.559176 368.439651,421.800865 C375.853753,425.771095 381.08974,437.467743 377.249931,448.079581 C375.350671,453.327703 376.118633,454.294378 381.606796,454.382027 C390.222069,454.518581 398.775727,447.126243 401.361643,437.958703 L401.361643,437.958703 Z M335.435717,438.556365 C334.053513,448.013527 340.631051,457.941959 350.684426,460.831189 C357.730745,462.856 364.085327,460.646365 369.732926,456.234716 C371.589628,454.784068 370.502158,453.664324 369.158066,452.711622 C365.025429,449.781743 361.813837,446.130986 360.270291,441.225838 C358.697526,436.2305 357.96577,431.100514 360.01875,426.133122 C362.318189,420.568068 362.092056,419.989459 356.22277,420.160946 C345.179747,420.482959 337.023092,427.70127 335.435717,438.556365 L335.435717,438.556365 Z M370.138821,450.951027 C371.92438,452.453122 373.393607,451.573459 374.324816,449.809689 C378.855092,441.229014 375.190599,428.358 366.962166,423.291527 C365.081962,422.133676 363.840138,422.470932 363.180161,424.302027 C362.145413,427.170932 361.419375,430.150351 360.562485,433.083405 C360.902319,440.787595 364.653199,446.334865 370.138821,450.951027 L370.138821,450.951027 Z" id="Fill-18" sketch:type="MSShapeGroup"></path>
                <path d="M700.213094,466.575986 C692.361337,476.432014 685.10286,485.544297 677.444839,495.157068 C689.436222,497.200297 700.886411,499.152068 713.41073,501.286122 C708.902051,489.428784 704.656982,478.264378 700.213094,466.575986" id="Fill-19" sketch:type="MSShapeGroup"></path>
                <path d="M661.418005,460.636203 C653.656446,470.410297 646.41639,479.527027 638.842852,489.064851 C650.864724,491.01027 662.244406,492.851527 674.439689,494.824257 C670.053605,483.309257 665.852365,472.278865 661.418005,460.636203" id="Fill-20" sketch:type="MSShapeGroup"></path>
                <path d="M574.118097,472.649149 C579.625316,472.675824 582.802607,469.895838 583.698245,465.293014 C584.372832,461.824541 581.079298,456.20677 577.152467,455.677068 C570.102972,454.726905 563.077615,453.544284 556.003347,452.856432 C551.758278,452.44423 548.117288,456.025122 547.596421,460.34023 C547.11049,464.369527 550.055931,469.112081 554.003089,469.792946 C560.894418,470.981919 567.853079,471.779649 574.118097,472.649149" id="Fill-21" sketch:type="MSShapeGroup"></path>
                <path d="M360.955041,483.268608 C360.403684,483.894851 359.583,484.507757 359.185362,485.327081 C355.121962,493.701973 351.183061,502.137203 347.088536,510.496851 C345.12512,514.505824 348.703224,514.796716 350.667911,516.101284 C352.886043,517.573527 354.126597,516.499514 355.159439,514.315284 C357.565592,509.229122 360.329365,504.309365 362.649765,499.187 C364.137413,495.904622 365.857546,495.700743 368.830301,497.340027 C373.957033,500.168284 379.327048,502.553216 384.510314,505.284932 C386.851041,506.519 388.038872,505.805108 389.079337,503.623419 C391.463258,498.627446 391.59411,498.50677 387.006666,496.126919 C379.056452,492.001081 371.003334,488.074676 362.988329,484.073959 C362.477625,483.81927 361.924362,483.649689 360.955041,483.268608" id="Fill-22" sketch:type="MSShapeGroup"></path>
                <path d="M671.98399,124.648446 C672.496599,123.056162 673.106395,121.488014 673.504668,119.868419 C675.314365,112.500851 677.135495,105.134554 678.750819,97.7231622 C678.970599,96.7152027 678.294742,94.644027 677.618885,94.4401486 C668.743179,91.7668649 659.792518,89.3406486 650.392768,87.3507703 C656.366862,100.464405 663.789222,112.551662 670.871747,124.826284 C671.242707,124.766581 671.613666,124.707514 671.98399,124.648446" id="Fill-23" sketch:type="MSShapeGroup"></path>
                <path d="M390.555551,209.866432 C387.167372,214.656622 387.218824,214.922108 391.740207,217.059973 C393.925944,218.092703 396.124385,219.100662 398.343788,220.057811 C400.338964,220.918419 400.824895,222.185514 399.867008,224.183014 C398.573097,226.879162 397.472288,229.66677 396.214584,232.381338 C395.296079,234.3655 395.883008,235.621162 397.787349,236.558622 C399.782526,237.540541 400.762645,236.595459 401.561097,234.915527 C402.843574,232.219378 404.252457,229.581662 405.480306,226.862014 C406.349265,224.938189 407.400528,224.218581 409.50877,225.245595 C412.400855,226.654959 415.466985,227.709284 418.353987,229.128176 C420.942444,230.400351 421.917482,228.567351 422.32973,226.886784 C422.560309,225.947419 421.609408,224.151257 420.68201,223.603135 C418.221865,222.150581 415.53114,221.044811 412.845497,220.028595 C410.095699,218.988878 409.733633,217.249878 410.897327,214.862405 C412.055939,212.486365 413.126893,210.052527 414.479242,207.789541 C415.650559,205.829514 415.797926,204.652608 413.377798,203.513811 C411.294964,202.534432 410.126824,202.368027 409.154327,204.813932 C408.052883,207.585027 406.480753,210.165581 405.298638,212.90873 C404.18449,215.495 402.522796,215.586459 400.299582,214.493392 C397.116574,212.927784 393.892913,211.446014 390.555551,209.866432" id="Fill-24" sketch:type="MSShapeGroup"></path>
                <path d="M557.221033,113.251581 C553.869061,100.943932 550.692406,88.5848378 547.107314,76.3457838 C546.251694,73.4260676 546.716663,72.6086486 549.527441,71.9119054 C562.358564,68.7330541 575.157926,65.4182838 587.925528,61.9904595 C590.845561,61.2067027 591.692923,62.2927838 592.382755,64.8962027 C595.351699,76.1018919 598.540423,87.2497838 601.600202,98.4326081 C602.284952,100.935041 602.770247,103.491459 603.38576,106.190784 C588.349844,110.002865 573.689334,113.720311 558.6585,117.531757 C558.142714,116.010608 557.602156,114.652689 557.221033,113.251581 L557.221033,113.251581 Z M576.676064,110.773284 C583.359046,109.073027 590.04838,107.397541 596.752959,105.789378 C599.462105,105.139635 600.628339,103.975432 599.760015,100.927419 C596.61512,89.8913108 593.64173,78.8056622 590.691842,67.7155676 C590.065531,65.3617568 588.873253,64.4065135 586.465829,65.0048108 C574.769181,67.9111892 563.069992,70.8061351 551.366357,73.682027 C548.718827,74.3330405 549.095503,76.1298378 549.624628,78.0111081 C551.550566,84.8667568 553.513347,91.7116081 555.403714,98.5767838 C556.621401,102.99923 557.655513,107.474392 558.95387,111.872068 C559.299421,113.043257 560.314477,114.016919 560.917286,114.922622 C566.705265,113.395122 571.680184,112.044189 576.676064,110.773284 L576.676064,110.773284 Z" id="Fill-25" sketch:type="MSShapeGroup"></path>
                <path d="M509.322199,209.930581 C510.562117,212.018905 510.326457,213.087203 508.200429,214.240608 C499.425084,219.002216 490.706908,223.870527 481.986191,228.732486 C474.077265,233.141595 466.191842,237.593892 458.288633,242.031581 C455.857707,237.721554 453.362625,233.483297 451.111462,229.119284 C450.756383,228.430797 451.189592,226.856297 451.80701,226.252284 C452.921793,225.161757 454.413888,224.427541 455.812607,223.660932 C471.302694,215.170446 486.804849,206.702824 502.916166,197.8935 C505.131758,202.105081 507.058332,206.117865 509.322199,209.930581 L509.322199,209.930581 Z M458.577015,237.471946 C458.916214,237.930514 460.922189,237.615486 461.857209,237.104838 C472.121472,231.4985 482.324755,225.781014 492.54773,220.098459 C496.623834,217.832932 500.678977,215.527392 504.798276,213.343162 C506.824577,212.268514 507.570306,211.027459 506.085834,208.986135 C505.547181,208.244932 505.06252,207.452919 504.647097,206.636135 C501.791219,201.027892 501.790584,201.008203 496.113765,204.201027 C482.821485,211.675297 469.527934,219.146392 456.275036,226.688622 C455.261885,227.265324 454.562526,228.391419 453.630681,229.351743 C455.460069,232.459459 456.828298,235.106703 458.577015,237.471946 L458.577015,237.471946 Z" id="Fill-26" sketch:type="MSShapeGroup"></path>
                <path d="M783.144704,450.512149 C770.239263,452.242257 755.909059,444.436446 750.990673,433.656297 C744.359778,419.121865 748.850671,404.032959 759.216566,395.897514 C762.492314,393.326486 762.952202,393.472568 764.991207,397.205892 C771.487439,409.102608 778.113253,420.928189 784.683804,432.784892 C787.33451,437.567459 789.971242,442.358284 792.945268,447.744865 C789.253462,448.814432 786.257204,450.094865 783.144704,450.512149 L783.144704,450.512149 Z M786.591957,447.547338 C788.90537,447.001122 789.484041,445.791189 788.200293,443.520581 C782.339901,433.155176 776.600196,422.721811 770.820474,412.310676 C768.372398,407.900932 765.863342,403.522311 763.514992,399.059851 C762.212824,396.586 760.929712,396.994392 759.282628,398.634946 C742.225492,415.621 750.07598,440.479554 770.989439,447.496527 C773.562651,448.359676 776.385497,448.477811 779.259161,448.970041 C781.657056,448.512743 784.146421,448.124041 786.591957,447.547338 L786.591957,447.547338 Z" id="Fill-27" sketch:type="MSShapeGroup"></path>
                <path d="M695.562765,188.690392 C692.275584,188.628784 688.785773,191.847014 688.62189,195.090649 C688.46436,198.205986 691.860161,201.925973 695.017125,202.095554 C698.701944,202.293716 701.875423,199.230459 701.891939,195.459027 C701.909089,191.717446 699.140235,188.757081 695.562765,188.690392" id="Fill-28" sketch:type="MSShapeGroup"></path>
                <path d="M769.339814,288.281486 C769.393806,291.6115 772.790878,294.786541 776.200653,294.693176 C779.511972,294.602351 782.724834,291.161189 782.612403,287.825459 C782.498066,284.430027 779.372227,281.345176 776.151107,281.448703 C772.377995,281.570649 769.281375,284.677095 769.339814,288.281486" id="Fill-29" sketch:type="MSShapeGroup"></path>
                <path d="M797.608301,295.776716 C793.910778,295.899297 790.843378,299.120068 790.978041,302.737797 C791.103176,306.111 794.155967,309.058027 797.49714,309.033257 C801.049202,309.006581 804.352898,305.557162 804.141375,302.096311 C803.940015,298.799324 800.709367,295.673824 797.608301,295.776716" id="Fill-30" sketch:type="MSShapeGroup"></path>
                <path d="M264.885505,401.621351 C261.467472,401.804905 258.630651,404.964068 258.872663,408.316311 C259.096255,411.416405 262.374543,414.358351 265.438768,414.209095 C268.951446,414.037608 271.806054,410.925446 271.516401,407.58273 C271.185459,403.755405 268.58938,401.421919 264.885505,401.621351" id="Fill-31" sketch:type="MSShapeGroup"></path>
                <path d="M277.999293,428.906122 C277.929421,432.384757 280.77323,435.492473 284.085819,435.557892 C287.277719,435.62077 290.706551,432.218986 290.759273,428.937243 C290.81136,425.710757 287.933885,422.817716 284.639717,422.784689 C281.267418,422.750392 278.063449,425.704405 277.999293,428.906122" id="Fill-32" sketch:type="MSShapeGroup"></path>
                <path d="M296.684457,402.03927 C296.687633,398.735932 293.92386,396.012473 290.481054,395.92673 C287.231985,395.845432 284.235092,399.023649 284.280827,402.502284 C284.32148,405.640486 287.317737,408.626892 290.561724,408.762176 C293.513518,408.886027 296.681281,405.408027 296.684457,402.03927" id="Fill-33" sketch:type="MSShapeGroup"></path>
                <path d="M249.585737,134.464205 C237.255356,134.464205 231.022146,127.568615 225.52322,121.484923 C220.536898,115.969026 216.23118,111.205128 207.537385,111.205128 C198.84318,111.205128 194.537054,115.969026 189.550732,121.484923 C184.051805,127.568615 177.819005,134.464205 165.489034,134.464205 C153.159063,134.464205 146.926673,127.568615 141.427746,121.484923 C136.441834,115.969026 132.135707,111.205128 123.442322,111.205128 C114.749756,111.205128 110.444039,115.969026 105.458537,121.484513 C100.064507,127.452103 93.9636488,134.200821 82.0962927,134.456821 L82.0962927,134.464205 L81.3972488,134.456821 C69.5294829,134.200821 63.4282146,127.452513 58.0341854,121.484923 C53.0478634,115.969026 48.7421463,111.205128 40.0479415,111.205128 C31.3541463,111.205128 27.0480195,115.969026 22.0616976,121.484923 C16.5631805,127.568615 10.3303805,134.464205 -2,134.464205 L-2,126.259077 C6.69379512,126.259077 10.9995122,121.495179 15.9858341,115.979282 C21.484761,109.89559 27.717561,103 40.0479415,103 C52.378322,103 58.6115317,109.89559 64.1104585,115.979282 C69.0291707,121.420923 73.2861268,126.130256 81.7467707,126.256205 C90.2070049,126.130256 94.4635512,121.420923 99.3822634,115.979282 C104.88078,109.89559 111.113171,103 123.442322,103 C135.772293,103 142.004683,109.89559 147.50402,115.979282 C152.489522,121.495179 156.795649,126.259077 165.489034,126.259077 C174.18242,126.259077 178.488546,121.495179 183.474868,115.979282 C188.973795,109.89559 195.207005,103 207.537385,103 C219.867356,103 226.100566,109.89559 231.599493,115.979282 C236.585405,121.495179 240.891532,126.259077 249.585737,126.259077 L249.585737,134.464205" id="Imported-Layers" sketch:type="MSShapeGroup" transform="translate(124.000000, 119.000000) rotate(20.000000) translate(-124.000000, -119.000000) "></path>
            </g>
        </g>
    </g>
</svg>