<?xml version="1.0" encoding="UTF-8" standalone="no"?>
<svg width="20px" height="20px" viewBox="0 0 20 20" version="1.1" xmlns="http://www.w3.org/2000/svg" xmlns:xlink="http://www.w3.org/1999/xlink" xmlns:sketch="http://www.bohemiancoding.com/sketch/ns">
    <!-- Generator: Sketch 3.2.1 (9971) - http://www.bohemiancoding.com/sketch -->
    <title>dashboard</title>
    <desc>Created with Sketch.</desc>
    <defs></defs>
    <g id="Icons" stroke="none" stroke-width="1" fill="none" fill-rule="evenodd" sketch:type="MSPage">
        <g id="dashboard" sketch:type="MSArtboardGroup" fill="#404851">
            <path d="M17,2 L3,2 C2.447,2 2,2.447 2,3 L2,17 C2,17.553 2.447,18 3,18 L17,18 C17.553,18 18,17.553 18,17 L18,3 C18,2.447 17.553,2 17,2 L17,2 Z M16,9.586 L13.353,6.939 C13.158,6.744 12.842,6.744 12.646,6.939 L9,10.586 L7.353,8.94 C7.158,8.744 6.842,8.744 6.646,8.94 L4,11.586 L4,4 L16,4 L16,9.586 L16,9.586 Z M4,14.414 L7,11.414 L8.646,13.06 C8.842,13.256 9.158,13.256 9.353,13.06 L13,9.414 L16,12.414 L16,16 L4,16 L4,14.414 L4,14.414 Z" id="Imported-Layers" sketch:type="MSShapeGroup"></path>
        </g>
    </g>
</svg>