<?xml version="1.0" encoding="UTF-8" standalone="no"?>
<svg width="20px" height="20px" viewBox="0 0 20 20" version="1.1" xmlns="http://www.w3.org/2000/svg" xmlns:xlink="http://www.w3.org/1999/xlink" xmlns:sketch="http://www.bohemiancoding.com/sketch/ns">
    <!-- Generator: Sketch 3.2.1 (9971) - http://www.bohemiancoding.com/sketch -->
    <title>how</title>
    <desc>Created with Sketch.</desc>
    <defs></defs>
    <g id="Icons" stroke="none" stroke-width="1" fill="none" fill-rule="evenodd" sketch:type="MSPage">
        <g id="how" sketch:type="MSArtboardGroup" fill="#404851">
            <path d="M10.70075,16.26975 C10.31875,16.66775 9.69775,16.66775 9.31575,16.26975 L3.17375,9.87475 C1.60875,8.30075 1.60875,5.75175 3.17375,4.17975 C4.73875,2.60675 7.27675,2.60675 8.84175,4.17975 L10.00775,5.60275 L11.17375,4.17975 C12.73975,2.60675 15.27775,2.60675 16.84175,4.17975 C18.40775,5.75175 18.40775,8.30075 16.84175,9.87475 L10.70075,16.26975 L10.70075,16.26975 Z M10.67975,7.70875 C10.30875,8.11875 9.70675,8.11875 9.33575,7.70875 L7.42375,5.60275 C6.64175,4.81575 5.37275,4.81575 4.58975,5.60275 C3.80775,6.38875 3.80775,7.66375 4.58975,8.45075 L10.00775,14.14375 L15.42575,8.45075 C16.20675,7.66375 16.20675,6.38875 15.42575,5.60275 C14.64275,4.81575 13.37375,4.81575 12.59175,5.60275 L10.67975,7.70875 L10.67975,7.70875 Z" id="Imported-Layers" sketch:type="MSShapeGroup"></path>
        </g>
    </g>
</svg>