<?xml version="1.0" encoding="UTF-8" standalone="no"?>
<svg width="20px" height="20px" viewBox="0 0 20 20" version="1.1" xmlns="http://www.w3.org/2000/svg" xmlns:xlink="http://www.w3.org/1999/xlink" xmlns:sketch="http://www.bohemiancoding.com/sketch/ns">
    <!-- Generator: Sketch 3.2.1 (9971) - http://www.bohemiancoding.com/sketch -->
    <title>involved</title>
    <desc>Created with Sketch.</desc>
    <defs></defs>
    <g id="Icons" stroke="none" stroke-width="1" fill="none" fill-rule="evenodd" sketch:type="MSPage">
        <g id="involved" sketch:type="MSArtboardGroup" fill="#404851">
            <path d="M17.9481344,16 C17.6981344,12.955 16.2551344,11.076 13.6731344,10.354 C14.4821344,9.467 14.9881344,8.297 14.9881344,7 C14.9881344,4.238 12.7501344,2 9.98813445,2 C7.22613445,2 4.98813445,4.238 4.98813445,7 C4.98813445,8.297 5.49413445,9.467 6.30313445,10.354 C3.72113445,11.076 2.27713445,12.955 2.02713445,16 C2.01513445,16.147 2.00613445,16.577 2.00013445,17.001 C1.99113445,17.553 2.43513445,18 2.98813445,18 L16.9881344,18 C17.5411344,18 17.9851344,17.553 17.9761344,17.001 C17.9691344,16.577 17.9601344,16.147 17.9481344,16 L17.9481344,16 Z M9.98813445,4 C11.6421344,4 12.9881344,5.346 12.9881344,7 C12.9881344,8.654 11.6421344,10 9.98813445,10 C8.33413445,10 6.98813445,8.654 6.98813445,7 C6.98813445,5.346 8.33413445,4 9.98813445,4 L9.98813445,4 Z M4.03213445,16 C4.29813445,13.174 5.79113445,12 8.98813445,12 L10.9881344,12 C14.1851344,12 15.6781344,13.174 15.9441344,16 L4.03213445,16 L4.03213445,16 Z" id="Imported-Layers" sketch:type="MSShapeGroup"></path>
        </g>
    </g>
</svg>