<?xml version="1.0" encoding="UTF-8" standalone="no"?>
<svg width="20px" height="20px" viewBox="0 0 20 20" version="1.1" xmlns="http://www.w3.org/2000/svg" xmlns:xlink="http://www.w3.org/1999/xlink" xmlns:sketch="http://www.bohemiancoding.com/sketch/ns">
    <!-- Generator: Sketch 3.2.1 (9971) - http://www.bohemiancoding.com/sketch -->
    <title>next</title>
    <desc>Created with Sketch.</desc>
    <defs></defs>
    <g id="Icons" stroke="none" stroke-width="1" fill="none" fill-rule="evenodd" sketch:type="MSPage">
        <g id="next" sketch:type="MSArtboardGroup" fill="#404851">
            <g id="Imported-Layers" sketch:type="MSLayerGroup" transform="translate(2.000000, 2.000000)">
                <path d="M5,1.5 L5,0.5 C5,0.224 4.776,0 4.5,0 L3.5,0 C3.224,0 3,0.224 3,0.5 L3,1.5 C3,1.776 3.224,2 3.5,2 L4.5,2 C4.776,2 5,1.776 5,1.5" id="Fill-1" sketch:type="MSShapeGroup"></path>
                <path d="M13,1.5 L13,0.5 C13,0.224 12.776,0 12.5,0 L11.5,0 C11.224,0 11,0.224 11,0.5 L11,1.5 C11,1.776 11.224,2 11.5,2 L12.5,2 C12.776,2 13,1.776 13,1.5" id="Fill-2" sketch:type="MSShapeGroup"></path>
                <path d="M13.5,3 L10.5,3 C10.224,3 10,2.776 10,2.5 L10,0.5 C10,0.224 9.776,0 9.5,0 L6.5,0 C6.224,0 6,0.224 6,0.5 L6,2.5 C6,2.776 5.776,3 5.5,3 L2.5,3 C2.224,3 2,2.776 2,2.5 L2,0.5 C2,0.224 1.776,0 1.5,0 L1,0 C0.448,0 0,0.447 0,1 L0,15 C0,15.553 0.448,16 1,16 L15,16 C15.552,16 16,15.553 16,15 L16,1 C16,0.447 15.552,0 15,0 L14.5,0 C14.224,0 14,0.224 14,0.5 L14,2.5 C14,2.776 13.776,3 13.5,3 L13.5,3 Z M2,5 L14,5 L14,14 L2,14 L2,5 Z" id="Fill-3" sketch:type="MSShapeGroup"></path>
                <path d="M5.5,7 L4.5,7 C4.224,7 4,7.224 4,7.5 L4,8.5 C4,8.776 4.224,9 4.5,9 L5.5,9 C5.776,9 6,8.776 6,8.5 L6,7.5 C6,7.224 5.776,7 5.5,7" id="Fill-4" sketch:type="MSShapeGroup"></path>
                <path d="M5.5,10 L4.5,10 C4.224,10 4,10.224 4,10.5 L4,11.5 C4,11.776 4.224,12 4.5,12 L5.5,12 C5.776,12 6,11.776 6,11.5 L6,10.5 C6,10.224 5.776,10 5.5,10" id="Fill-5" sketch:type="MSShapeGroup"></path>
                <path d="M11.5,10 L7.5,10 C7.224,10 7,10.224 7,10.5 L7,11.5 C7,11.776 7.224,12 7.5,12 L11.5,12 C11.776,12 12,11.776 12,11.5 L12,10.5 C12,10.224 11.776,10 11.5,10" id="Fill-6" sketch:type="MSShapeGroup"></path>
                <path d="M11.5,7 L7.5,7 C7.224,7 7,7.224 7,7.5 L7,8.5 C7,8.776 7.224,9 7.5,9 L11.5,9 C11.776,9 12,8.776 12,8.5 L12,7.5 C12,7.224 11.776,7 11.5,7" id="Fill-7" sketch:type="MSShapeGroup"></path>
            </g>
        </g>
    </g>
</svg>