<?xml version="1.0" encoding="UTF-8" standalone="no"?>
<svg width="20px" height="20px" viewBox="0 0 20 20" version="1.1" xmlns="http://www.w3.org/2000/svg" xmlns:xlink="http://www.w3.org/1999/xlink" xmlns:sketch="http://www.bohemiancoding.com/sketch/ns">
    <!-- Generator: Sketch 3.2.1 (9971) - http://www.bohemiancoding.com/sketch -->
    <title>strategy</title>
    <desc>Created with Sketch.</desc>
    <defs></defs>
    <g id="Icons" stroke="none" stroke-width="1" fill="none" fill-rule="evenodd" sketch:type="MSPage">
        <g id="strategy" sketch:type="MSArtboardGroup" fill="#404851">
            <path d="M9.00001764,17.50025 C9.00001764,17.77625 8.76701764,18.00025 8.48801764,18.00025 L3.95401764,18.00025 C3.39801764,18.00025 3.00001764,17.55325 3.00001764,17.00025 L3.00001764,11.00025 L1.52101764,11.00025 C0.965017643,11.00025 0.833017643,10.68425 1.22701764,10.29325 L9.28701764,2.29325 C9.68201764,1.90225 10.3180176,1.90225 10.7130176,2.29325 L18.7730176,10.29325 C19.1670176,10.68425 19.0350176,11.00025 18.4780176,11.00025 L17.0000176,11.00025 L17.0000176,17.00025 C17.0000176,17.55325 16.6020176,18.00025 16.0460176,18.00025 L11.5120176,18.00025 C11.2330176,18.00025 11.0000176,17.77625 11.0000176,17.50025 L11.0000176,14.00025 L9.00001764,14.00025 L9.00001764,17.50025 L9.00001764,17.50025 Z M15.0000176,16.00025 L15.0000176,9.41425 L10.0000176,4.41425 L5.00001764,9.41425 L5.00001764,16.00025 L7.00001764,16.00025 L7.00001764,13.00025 C7.00001764,12.44725 7.42801764,12.00025 7.98401764,12.00025 L12.0160176,12.00025 C12.5720176,12.00025 13.0000176,12.44725 13.0000176,13.00025 L13.0000176,16.00025 L15.0000176,16.00025 L15.0000176,16.00025 Z" id="Imported-Layers" sketch:type="MSShapeGroup"></path>
        </g>
    </g>
</svg>