<?xml version="1.0" encoding="UTF-8" standalone="no"?>
<svg width="20px" height="20px" viewBox="0 0 20 20" version="1.1" xmlns="http://www.w3.org/2000/svg" xmlns:xlink="http://www.w3.org/1999/xlink" xmlns:sketch="http://www.bohemiancoding.com/sketch/ns">
    <!-- Generator: Sketch 3.2.1 (9971) - http://www.bohemiancoding.com/sketch -->
    <title>this</title>
    <desc>Created with Sketch.</desc>
    <defs></defs>
    <g id="Icons" stroke="none" stroke-width="1" fill="none" fill-rule="evenodd" sketch:type="MSPage">
        <g id="this" sketch:type="MSArtboardGroup" fill="#404851">
            <g id="Group" sketch:type="MSLayerGroup" transform="translate(2.000000, 2.000000)">
                <path d="M3.5,2 L4.5,2 C4.776,2 5,1.776 5,1.5 L5,0.5 C5,0.224 4.776,0 4.5,0 L3.5,0 C3.224,0 3,0.224 3,0.5 L3,1.5 C3,1.776 3.224,2 3.5,2" id="Fill-1" sketch:type="MSShapeGroup"></path>
                <path d="M11.5,2 L12.5,2 C12.776,2 13,1.776 13,1.5 L13,0.5 C13,0.224 12.776,0 12.5,0 L11.5,0 C11.224,0 11,0.224 11,0.5 L11,1.5 C11,1.776 11.224,2 11.5,2" id="Fill-2" sketch:type="MSShapeGroup"></path>
                <path d="M15,0 L14.5,0 C14.224,0 14,0.224 14,0.5 L14,2.5 C14,2.776 13.776,3 13.5,3 L10.5,3 C10.224,3 10,2.776 10,2.5 L10,0.5 C10,0.224 9.776,0 9.5,0 L6.5,0 C6.224,0 6,0.224 6,0.5 L6,2.5 C6,2.776 5.776,3 5.5,3 L2.5,3 C2.224,3 2,2.776 2,2.5 L2,0.5 C2,0.224 1.776,0 1.5,0 L1,0 C0.448,0 0,0.447 0,1 L0,15 C0,15.553 0.448,16 1,16 L15,16 C15.552,16 16,15.553 16,15 L16,1 C16,0.447 15.552,0 15,0 L15,0 Z M2,5 L14,5 L14,14 L2,14 L2,5 Z" id="Fill-3" sketch:type="MSShapeGroup"></path>
                <path d="M6.797,11.869 C6.971,12.044 7.251,12.044 7.425,11.869 L11.87,7.397 C12.043,7.221 12.043,6.939 11.87,6.764 L11.241,6.131 C11.067,5.957 10.787,5.957 10.613,6.131 L7.111,9.655 L5.387,8.063 C5.213,7.888 4.933,7.888 4.759,8.063 L4.13,8.695 C3.957,8.869 3.957,9.152 4.13,9.328 L6.797,11.869" id="Fill-4" sketch:type="MSShapeGroup"></path>
            </g>
        </g>
    </g>
</svg>