<?xml version="1.0" encoding="UTF-8" standalone="no"?>
<svg width="100px" height="100px" viewBox="0 0 100 100" version="1.1" xmlns="http://www.w3.org/2000/svg" xmlns:xlink="http://www.w3.org/1999/xlink" xmlns:sketch="http://www.bohemiancoding.com/sketch/ns">
    <!-- Generator: Sketch 3.2.1 (9971) - http://www.bohemiancoding.com/sketch -->
    <title>unknown</title>
    <desc>Created with Sketch.</desc>
    <defs></defs>
    <g id="Icons" stroke="none" stroke-width="1" fill="none" fill-rule="evenodd" sketch:type="MSPage">
        <g id="unknown" sketch:type="MSArtboardGroup" fill="#F9FAFA">
            <path d="M62.2331875,48.6475 C64.81825,45.8138125 66.4375,42.0780625 66.4375,37.9375 C66.4375,29.133625 59.303875,22 50.5,22 C41.696125,22 34.5625,29.133625 34.5625,37.9375 C34.5625,42.0780625 36.18175,45.8138125 38.7668125,48.6475 C30.552625,50.9456875 25.8128125,56.9509375 25,66.625 L25,69.8125 C25,71.5751875 26.428,73 28.1875,73 L72.8125,73 C74.572,73 76,71.5751875 76,69.8125 L76,66.625 C75.1871875,56.9509375 70.447375,50.9456875 62.2331875,48.6475 L62.2331875,48.6475 Z M31.528,66.625 C32.3790625,58.190875 36.685375,55.85125 40.484875,54.786625 C42.614125,54.19375 44.2875625,52.5330625 44.896375,50.407 C45.508375,48.27775 44.9696875,45.9859375 43.4779375,44.3539375 C42.320875,43.082125 40.9375,40.9369375 40.9375,37.9375 C40.9375,32.665375 45.227875,28.375 50.5,28.375 C55.772125,28.375 60.0625,32.665375 60.0625,37.9375 C60.0625,40.9369375 58.679125,43.082125 57.5220625,44.3539375 C56.0303125,45.9859375 55.491625,48.27775 56.103625,50.407 C56.7124375,52.5330625 58.385875,54.19375 60.515125,54.786625 C64.314625,55.85125 68.6209375,58.190875 69.472,66.625 L31.528,66.625 L31.528,66.625 Z" id="Imported-Layers" sketch:type="MSShapeGroup"></path>
        </g>
    </g>
</svg>