<?xml version="1.0" encoding="UTF-8" standalone="no"?>
<svg width="20px" height="20px" viewBox="0 0 20 20" version="1.1" xmlns="http://www.w3.org/2000/svg" xmlns:xlink="http://www.w3.org/1999/xlink" xmlns:sketch="http://www.bohemiancoding.com/sketch/ns">
    <!-- Generator: Sketch 3.2.1 (9971) - http://www.bohemiancoding.com/sketch -->
    <title>upcoming</title>
    <desc>Created with Sketch.</desc>
    <defs></defs>
    <g id="Icons" stroke="none" stroke-width="1" fill="none" fill-rule="evenodd" sketch:type="MSPage">
        <g id="upcoming" sketch:type="MSArtboardGroup" fill="#404851">
            <path d="M6.5,2 L5.5,2 C5.224,2 5,2.224 5,2.5 L5,3.5 C5,3.776 5.224,4 5.5,4 L6.5,4 C6.776,4 7,3.776 7,3.5 L7,2.5 C7,2.224 6.776,2 6.5,2 Z M14.5,2 L13.5,2 C13.224,2 13,2.224 13,2.5 L13,3.5 C13,3.776 13.224,4 13.5,4 L14.5,4 C14.776,4 15,3.776 15,3.5 L15,2.5 C15,2.224 14.776,2 14.5,2 Z M16,2.5 L16,4.5 C16,4.776 15.776,5 15.5,5 L12.5,5 C12.224,5 12,4.776 12,4.5 L12,2.5 C12,2.224 11.776,2 11.5,2 L8.5,2 C8.224,2 8,2.224 8,2.5 L8,4.5 C8,4.776 7.776,5 7.5,5 L4.5,5 C4.224,5 4,4.776 4,4.5 L4,2.5 C4,2.224 3.776,2 3.5,2 L3,2 C2.448,2 2,2.447 2,3 L2,17 C2,17.553 2.448,18 3,18 L17,18 C17.552,18 18,17.553 18,17 L18,3 C18,2.447 17.552,2 17,2 L16.5,2 C16.224,2 16,2.224 16,2.5 Z M4,7 L16,7 L16,16 L4,16 L4,7 Z" id="Fill-1" sketch:type="MSShapeGroup"></path>
        </g>
    </g>
</svg>